<?xml version="1.0" encoding="UTF-8"?>
<svg width="458px" height="523px" viewBox="0 0 458 523" version="1.1" xmlns="http://www.w3.org/2000/svg" xmlns:xlink="http://www.w3.org/1999/xlink">
    <!-- Generator: Sketch 47.1 (45422) - http://www.bohemiancoding.com/sketch -->
    <title>Crowned_Portcullis</title>
    <desc>Created with Sketch.</desc>
    <defs></defs>
    <g id="Page-1" stroke="none" stroke-width="1" fill="none" fill-rule="evenodd">
        <g id="Crowned_Portcullis" transform="translate(3.000000, 0.000000)">
            <g id="Crown" transform="translate(9.000000, 0.000000)" fill-rule="nonzero" fill="#347C25">
                <circle id="Oval" cx="91" cy="109" r="8.6"></circle>
                <circle id="Oval" cx="168" cy="92" r="8.6"></circle>
                <path d="M398.7,36.522 C409.572,53.316 416.763,71.663 401.7,91.522 C388.135,87.227 383.546,71.429 380.7,53.522 L354.7,100.522 C371.01,93.079 385.782,85.26 396.7,99 C380.125,121.95 334.143,148.67 320.294,110.272 C321.742,108.125 322.864,105.624 323.513,102.866 C324.875,97.071 323.909,91.359 321.263,87.116 C333.057,56.443 349.091,66.74 358.169,81.397 C358.715,65.081 360.719,42.533 326.075,63.991 C333.587,46.023 330.847,15.786 327.731,15.053 C324.614,14.321 308.666,40.182 307.387,59.616 C285.929,24.972 277.666,46.046 270.887,60.897 C285.544,51.819 304.523,49.744 301.418,82.46 C297.159,85.08 293.718,89.758 292.355,95.554 C291.711,98.293 291.585,101.002 291.917,103.554 C252.7,117 242.7,107 222.7,67 L222.7,49.506 C224.7,49 224.7,48 225.2,46.006 C244.324,45.896 251.149,57.563 258.7,69.522 L258.7,16.522 C251.26,30.125 242.668,39.855 225.2,39.006 C224.7,37 224.7,36 222.7,35.506 C225.41,17.26 232.881,9.265 250.7,0.522 L217,0.506 L217,0.506 L216.85,0.506 L216.7,0.506 L216.7,0.506 L183,0.522 C200.819,9.266 208.29,17.26 211,35.506 C209,36 209,37 208.5,39.006 C191.032,39.855 182.439,30.125 175,16.522 L175,69.522 C182.55,57.563 189.376,45.897 208.5,46.006 C209,48 209,49 211,49.506 L211,67 C191,107 181,117 141.781,103.553 C142.113,101.001 141.987,98.292 141.343,95.553 C139.981,89.758 136.54,85.079 132.28,82.459 C129.175,49.744 148.154,51.818 162.811,60.896 C156.031,46.045 147.769,24.971 126.311,59.615 C125.032,40.182 109.084,14.32 105.967,15.052 C102.85,15.785 100.111,46.022 107.623,63.99 C72.979,42.532 74.983,65.08 75.529,81.396 C84.608,66.739 100.641,56.442 112.435,87.115 C109.789,91.358 108.823,97.07 110.185,102.865 C110.833,105.623 111.955,108.124 113.404,110.271 C99.557,148.67 53.575,121.95 37,99 C47.918,85.26 62.69,93.079 79,100.522 L53,53.522 C50.154,71.429 45.565,87.227 32,91.522 C16.937,71.663 24.127,53.316 35,36.522 L0,56.522 L67,171.522 C110.636,143.064 163.889,129.653 216.7,130.504 L216.7,130.506 C216.75,130.505 216.8,130.506 216.849,130.505 C216.9,130.506 216.95,130.505 216.999,130.506 L216.999,130.504 C269.81,129.653 323.064,143.064 366.699,171.522 L433.699,56.522 L398.7,36.522 Z" id="Shape"></path>
                <circle id="Oval" cx="342.7" cy="109" r="8.6"></circle>
                <circle id="Oval" cx="265.7" cy="92" r="8.6"></circle>
            </g>
            <path d="M226,163.522 L225.7,163.522 L68,163.522 L68,514.522 L85,514.522 C85,514.522 110,448.522 110,443.522 C110,442.13 108,441.522 102,441.522 L102,406.521 L137,406.521 L137,443.522 L129,443.522 L155,510.522 L181,443.522 L173,443.522 L173,406.521 L208,406.521 L208,443.522 L200,443.522 L225.7,509.75 L225.7,510.522 L225.849,510.135 L225.999,510.522 L225.999,509.75 L251.699,443.522 L243.699,443.522 L243.699,406.521 L278.699,406.521 L278.699,443.522 L270.699,443.522 L296.699,510.522 L322.699,443.522 L314.699,443.522 L314.699,406.521 L349.699,406.521 L349.699,441.522 C343.699,441.522 341.699,442.13 341.699,443.522 C341.699,448.522 366.699,514.522 366.699,514.522 L383.699,514.522 L383.699,163.522 L226,163.522 Z M85,397.521 C80.032,397.521 76,393.49 76,388.521 C76,383.554 80.032,379.521 85,379.521 C89.968,379.521 94,383.554 94,388.521 C94,393.49 89.968,397.521 85,397.521 Z M85,326.521 C80.032,326.521 76,322.49 76,317.521 C76,312.554 80.032,308.521 85,308.521 C89.968,308.521 94,312.554 94,317.521 C94,322.49 89.968,326.521 85,326.521 Z M85,257.522 C80.032,257.522 76,253.49 76,248.522 C76,243.554 80.032,239.522 85,239.522 C89.968,239.522 94,243.554 94,248.522 C94,253.49 89.968,257.522 85,257.522 Z M85,190.522 C80.032,190.522 76,186.49 76,181.522 C76,176.554 80.032,172.522 85,172.522 C89.968,172.522 94,176.554 94,181.522 C94,186.49 89.968,190.522 85,190.522 Z M137,370.521 L102,370.521 L102,335.521 L137,335.521 L137,370.521 Z M137,299.521 L102,299.521 L102,267.521 L137,267.521 L137,299.521 Z M137,231.522 L102,231.522 L102,199.522 L137,199.522 L137,231.522 Z M155,397.521 C150.032,397.521 146,393.49 146,388.521 C146,383.554 150.032,379.521 155,379.521 C159.968,379.521 164,383.554 164,388.521 C164,393.49 159.968,397.521 155,397.521 Z M155,326.521 C150.032,326.521 146,322.49 146,317.521 C146,312.554 150.032,308.521 155,308.521 C159.968,308.521 164,312.554 164,317.521 C164,322.49 159.968,326.521 155,326.521 Z M155,257.522 C150.032,257.522 146,253.49 146,248.522 C146,243.554 150.032,239.522 155,239.522 C159.968,239.522 164,243.554 164,248.522 C164,253.49 159.968,257.522 155,257.522 Z M155,190.522 C150.032,190.522 146,186.49 146,181.522 C146,176.554 150.032,172.522 155,172.522 C159.968,172.522 164,176.554 164,181.522 C164,186.49 159.968,190.522 155,190.522 Z M208,370.521 L173,370.521 L173,335.521 L208,335.521 L208,370.521 Z M208,299.521 L173,299.521 L173,267.521 L208,267.521 L208,299.521 Z M208,231.522 L173,231.522 L173,199.522 L208,199.522 L208,231.522 Z M225.85,397.514 C220.953,397.433 217,393.44 217,388.522 C217,383.606 220.952,379.611 225.85,379.53 C230.748,379.611 234.701,383.606 234.701,388.522 C234.7,393.439 230.748,397.433 225.85,397.514 Z M225.85,326.514 C220.953,326.433 217,322.44 217,317.522 C217,312.606 220.952,308.611 225.85,308.53 C230.748,308.611 234.701,312.606 234.701,317.522 C234.7,322.439 230.748,326.433 225.85,326.514 Z M225.85,257.515 C220.953,257.434 217,253.44 217,248.522 C217,243.605 220.952,239.61 225.85,239.529 C230.748,239.61 234.701,243.605 234.701,248.522 C234.7,253.439 230.748,257.434 225.85,257.515 Z M225.85,190.515 C220.953,190.434 217,186.44 217,181.522 C217,176.605 220.952,172.61 225.85,172.529 C230.748,172.61 234.701,176.605 234.701,181.522 C234.7,186.439 230.748,190.434 225.85,190.515 Z M278.7,370.521 L243.7,370.521 L243.7,335.521 L278.7,335.521 L278.7,370.521 Z M278.7,299.521 L243.7,299.521 L243.7,267.521 L278.7,267.521 L278.7,299.521 Z M278.7,231.522 L243.7,231.522 L243.7,199.522 L278.7,199.522 L278.7,231.522 Z M296.7,397.521 C291.732,397.521 287.7,393.49 287.7,388.521 C287.7,383.554 291.732,379.521 296.7,379.521 C301.668,379.521 305.7,383.554 305.7,388.521 C305.7,393.49 301.668,397.521 296.7,397.521 Z M296.7,326.521 C291.732,326.521 287.7,322.49 287.7,317.521 C287.7,312.554 291.732,308.521 296.7,308.521 C301.668,308.521 305.7,312.554 305.7,317.521 C305.7,322.49 301.668,326.521 296.7,326.521 Z M296.7,257.522 C291.732,257.522 287.7,253.49 287.7,248.522 C287.7,243.554 291.732,239.522 296.7,239.522 C301.668,239.522 305.7,243.554 305.7,248.522 C305.7,253.49 301.668,257.522 296.7,257.522 Z M296.7,190.522 C291.732,190.522 287.7,186.49 287.7,181.522 C287.7,176.554 291.732,172.522 296.7,172.522 C301.668,172.522 305.7,176.554 305.7,181.522 C305.7,186.49 301.668,190.522 296.7,190.522 Z M349.7,370.521 L314.7,370.521 L314.7,335.521 L349.7,335.521 L349.7,370.521 Z M349.7,299.521 L314.7,299.521 L314.7,267.521 L349.7,267.521 L349.7,299.521 Z M349.7,231.522 L314.7,231.522 L314.7,199.522 L349.7,199.522 L349.7,231.522 Z M366.7,397.521 C361.732,397.521 357.7,393.49 357.7,388.521 C357.7,383.554 361.732,379.521 366.7,379.521 C371.668,379.521 375.7,383.554 375.7,388.521 C375.7,393.49 371.668,397.521 366.7,397.521 Z M366.7,326.521 C361.732,326.521 357.7,322.49 357.7,317.521 C357.7,312.554 361.732,308.521 366.7,308.521 C371.668,308.521 375.7,312.554 375.7,317.521 C375.7,322.49 371.668,326.521 366.7,326.521 Z M366.7,257.522 C361.732,257.522 357.7,253.49 357.7,248.522 C357.7,243.554 361.732,239.522 366.7,239.522 C371.668,239.522 375.7,243.554 375.7,248.522 C375.7,253.49 371.668,257.522 366.7,257.522 Z M366.7,190.522 C361.732,190.522 357.7,186.49 357.7,181.522 C357.7,176.554 361.732,172.522 366.7,172.522 C371.668,172.522 375.7,176.554 375.7,181.522 C375.7,186.49 371.668,190.522 366.7,190.522 Z" id="Portcullis" fill="#347C25" fill-rule="nonzero"></path>
            <g id="Group" transform="translate(0.000000, 155.000000)" stroke="#347C25" stroke-width="5.7">
                <path d="M427.2,49.496 C427.149,49.496 427.1,49.5 427.05,49.5 C413.52,49.5 402.55,38.531 402.55,25" id="Shape"></path>
                <path d="M427.2,49.496 C440.662,49.415 451.55,38.481 451.55,25 C451.55,11.469 440.581,0.5 427.05,0.5 C413.52,0.5 402.55,11.469 402.55,25" id="Shape"></path>
                <path d="M416.7,25 L402.55,25" id="Shape"></path>
                <path d="M402.55,25 L383.2,25" id="Shape"></path>
                <path d="M427.2,75.5 L413,75.5 C409.576,75.5 406.8,78.276 406.8,81.7 L406.8,122.3 C406.8,125.725 409.576,128.5 413,128.5 L427.2,128.5" id="Shape"></path>
                <path d="M427.2,128.5 L441.6,128.5 C445.025,128.5 447.8,125.725 447.8,122.3 L447.8,81.7 C447.8,78.276 445.025,75.5 441.6,75.5 L427.2,75.5" id="Shape"></path>
                <path d="M427.2,75.5 L427.2,83" id="Shape"></path>
                <path d="M427.2,75.5 L427.2,49.496" id="Shape"></path>
                <path d="M427.2,49.496 L427.2,42" id="Shape"></path>
                <path d="M427.2,209.9 L413,209.9 C409.576,209.9 406.8,207.124 406.8,203.7 L406.8,163.1 C406.8,159.676 409.576,156.901 413,156.901 L427.2,156.901" id="Shape"></path>
                <path d="M427.2,209.9 L441.6,209.9 C445.025,209.9 447.8,207.124 447.8,203.7 L447.8,163.1 C447.8,159.676 445.025,156.901 441.6,156.901 L427.2,156.901" id="Shape"></path>
                <path d="M427.2,128.5 L427.2,123.4" id="Shape"></path>
                <path d="M427.2,128.5 L427.2,156.9" id="Shape"></path>
                <path d="M427.2,164.4 L427.2,156.9" id="Shape"></path>
                <path d="M427.2,237.8 L413,237.8 C409.576,237.8 406.8,240.576 406.8,244 L406.8,284.6 C406.8,288.025 409.576,290.8 413,290.8 L427.2,290.8" id="Shape"></path>
                <path d="M427.2,237.8 L441.6,237.8 C445.025,237.8 447.8,240.576 447.8,244 L447.8,284.6 C447.8,288.025 445.025,290.8 441.6,290.8 L427.2,290.8" id="Shape"></path>
                <path d="M427.2,237.8 L427.2,245.3" id="Shape"></path>
                <path d="M427.2,237.8 L427.2,209.9" id="Shape"></path>
                <path d="M427.2,209.9 L427.2,204.3" id="Shape"></path>
                <path d="M427.2,315.504 C427.149,315.504 427.1,315.5 427.05,315.5 C413.52,315.5 402.55,326.469 402.55,340 C402.55,353.531 413.52,364.5 427.05,364.5 C440.581,364.5 451.55,353.531 451.55,340 C451.55,326.52 440.662,315.585 427.2,315.504" id="Shape"></path>
                <path d="M427.2,284 L427.2,290.8" id="Shape"></path>
                <path d="M427.2,315.504 L427.2,325" id="Shape"></path>
                <path d="M427.2,315.504 L427.2,290.8" id="Shape"></path>
                <g id="Shape">
                    <path d="M24.65,0.5 C11.119,0.5 0.15,11.469 0.15,25 C0.15,38.481 11.039,49.415 24.5,49.496 C24.55,49.496 24.6,49.5 24.65,49.5 C38.181,49.5 49.15,38.531 49.15,25 C49.15,11.469 38.181,0.5 24.65,0.5 Z"></path>
                    <path d="M49.15,25 L35,25"></path>
                    <path d="M68.5,25 L49.15,25"></path>
                    <path d="M38.7,75.5 L24.5,75.5 L10.1,75.5 C6.676,75.5 3.9,78.276 3.9,81.7 L3.9,122.3 C3.9,125.725 6.676,128.5 10.1,128.5 L24.5,128.5 L38.7,128.5 C42.124,128.5 44.9,125.725 44.9,122.3 L44.9,81.7 C44.9,78.276 42.124,75.5 38.7,75.5 Z"></path>
                    <path d="M24.5,49.496 L24.5,42"></path>
                    <path d="M24.5,49.496 L24.5,75.5"></path>
                    <path d="M24.5,83 L24.5,75.5"></path>
                    <path d="M38.7,156.9 L24.5,156.9 L10.1,156.9 C6.676,156.9 3.9,159.675 3.9,163.099 L3.9,203.7 C3.9,207.124 6.676,209.9 10.1,209.9 L24.5,209.9 L38.7,209.9 C42.124,209.9 44.9,207.124 44.9,203.7 L44.9,163.1 C44.9,159.676 42.124,156.9 38.7,156.9 Z"></path>
                    <path d="M24.5,128.5 L24.5,156.9"></path>
                    <path d="M24.5,156.9 L24.5,164.4"></path>
                    <path d="M24.5,128.5 L24.5,123.4"></path>
                    <path d="M24.5,290.8 L38.7,290.8 C42.124,290.8 44.9,288.025 44.9,284.6 L44.9,244 C44.9,240.576 42.124,237.8 38.7,237.8 L24.5,237.8"></path>
                    <path d="M24.5,237.8 L10.1,237.8 C6.676,237.8 3.9,240.576 3.9,244 L3.9,284.6 C3.9,288.025 6.676,290.8 10.1,290.8 L24.5,290.8"></path>
                    <path d="M24.5,204.3 L24.5,209.9"></path>
                    <path d="M24.5,237.8 L24.5,209.9"></path>
                    <path d="M24.5,237.8 L24.5,245.3"></path>
                    <path d="M24.5,315.504 C11.039,315.585 0.15,326.52 0.15,340 C0.15,353.531 11.119,364.5 24.65,364.5 C38.181,364.5 49.15,353.531 49.15,340 C49.15,326.469 38.181,315.5 24.65,315.5 C24.6,315.5 24.55,315.504 24.5,315.504"></path>
                    <path d="M24.5,290.8 L24.5,315.504"></path>
                    <path d="M24.5,290.8 L24.5,284"></path>
                    <path d="M24.5,315.504 L24.5,325"></path>
                </g>
            </g>
        </g>
    </g>
</svg>